<svg width="411" height="823" viewBox="0 0 411 823" fill="none" xmlns="http://www.w3.org/2000/svg">
<path fill-rule="evenodd" clip-rule="evenodd" d="M108.04 1446.44L-43.9133 1339.54C-195.866 1232.64 -499.772 1018.85 -514.556 907.515C-529.339 796.182 -255.001 787.31 -28.8497 761.362C197.302 735.413 375.266 692.388 480.95 623.747C586.634 555.106 620.037 460.85 636.739 413.722L653.44 366.594L942.562 469.056L925.861 516.184C909.159 563.312 875.756 657.568 842.352 751.824C808.949 846.08 775.546 940.336 742.143 1034.59C708.739 1128.85 675.336 1223.1 641.933 1317.36C608.529 1411.62 575.126 1505.87 558.424 1553L541.723 1600.13L108.04 1446.44Z" fill="#0099FF"/>
<ellipse cx="219.5" cy="204.5" rx="432.5" ry="355.5" fill="#DDD9D9"/>
</svg>
